<?xml version="1.0" encoding="UTF-8" standalone="no"?>
<svg
   xmlns:dc="http://purl.org/dc/elements/1.1/"
   xmlns:cc="http://creativecommons.org/ns#"
   xmlns:rdf="http://www.w3.org/1999/02/22-rdf-syntax-ns#"
   xmlns:svg="http://www.w3.org/2000/svg"
   xmlns="http://www.w3.org/2000/svg"
   xmlns:sodipodi="http://sodipodi.sourceforge.net/DTD/sodipodi-0.dtd"
   xmlns:inkscape="http://www.inkscape.org/namespaces/inkscape"
   width="16"
   height="16"
   version="1.1"
   id="svg4"
   sodipodi:docname="eye-not-looking-symbolic.svg"
   inkscape:version="1.0.2 (e86c870879, 2021-01-15)">
  <metadata
     id="metadata10">
    <rdf:RDF>
      <cc:Work
         rdf:about="">
        <dc:format>image/svg+xml</dc:format>
        <dc:type
           rdf:resource="http://purl.org/dc/dcmitype/StillImage" />
      </cc:Work>
    </rdf:RDF>
  </metadata>
  <defs
     id="defs8" />
  <sodipodi:namedview
     pagecolor="#ffffff"
     bordercolor="#666666"
     borderopacity="1"
     objecttolerance="10"
     gridtolerance="10"
     guidetolerance="10"
     inkscape:pageopacity="0"
     inkscape:pageshadow="2"
     inkscape:window-width="1920"
     inkscape:window-height="1011"
     id="namedview6"
     showgrid="false"
     inkscape:zoom="53.1875"
     inkscape:cx="8"
     inkscape:cy="8"
     inkscape:window-x="0"
     inkscape:window-y="32"
     inkscape:window-maximized="1"
     inkscape:current-layer="svg4"
     inkscape:document-rotation="0" />
  <path
     d="M13.98 1.99a1 1 0 0 0-.687.303l-.984.984A8 8 0 0 0 8 2 8 8 0 0 0 .262 8.01a8 8 0 0 0 2.943 4.37l-.912.913a1 1 0 1 0 1.414 1.414l11-11a1 1 0 0 0-.727-1.717zM8 4a4 4 0 0 1 2.611.974l-1.42 1.42A2 2 0 0 0 8 6a2 2 0 0 0-2 2 2 2 0 0 0 .396 1.19l-1.42 1.42A4 4 0 0 1 4 8a4 4 0 0 1 4-4zm7.03 2.209l-3.344 3.343a4 4 0 0 1-2.127 2.127l-2.28 2.28a8 8 0 0 0 .721.04 8 8 0 0 0 7.738-6.01 8 8 0 0 0-.709-1.78zm-7.53.79a.5.5 0 0 1 .5.5.5.5 0 0 1-.5.5.5.5 0 0 1-.5-.5.5.5 0 0 1 .5-.5z"
     fill="#2e3436"
     id="path2"
     style="fill:#535353;fill-opacity:1" />
</svg>
