<?xml version="1.0" encoding="UTF-8" standalone="no"?>
<svg
   xmlns:dc="http://purl.org/dc/elements/1.1/"
   xmlns:cc="http://creativecommons.org/ns#"
   xmlns:rdf="http://www.w3.org/1999/02/22-rdf-syntax-ns#"
   xmlns:svg="http://www.w3.org/2000/svg"
   xmlns="http://www.w3.org/2000/svg"
   xmlns:sodipodi="http://sodipodi.sourceforge.net/DTD/sodipodi-0.dtd"
   xmlns:inkscape="http://www.inkscape.org/namespaces/inkscape"
   width="16"
   height="16"
   version="1.1"
   id="svg26"
   sodipodi:docname="keyboard-layout-filled-symbolic.svg"
   inkscape:version="1.0.2 (e86c870879, 2021-01-15)">
  <metadata
     id="metadata32">
    <rdf:RDF>
      <cc:Work
         rdf:about="">
        <dc:format>image/svg+xml</dc:format>
        <dc:type
           rdf:resource="http://purl.org/dc/dcmitype/StillImage" />
      </cc:Work>
    </rdf:RDF>
  </metadata>
  <defs
     id="defs30" />
  <sodipodi:namedview
     pagecolor="#ffffff"
     bordercolor="#666666"
     borderopacity="1"
     objecttolerance="10"
     gridtolerance="10"
     guidetolerance="10"
     inkscape:pageopacity="0"
     inkscape:pageshadow="2"
     inkscape:window-width="1560"
     inkscape:window-height="873"
     id="namedview28"
     showgrid="false"
     inkscape:zoom="53.1875"
     inkscape:cx="4.3807286"
     inkscape:cy="8"
     inkscape:window-x="0"
     inkscape:window-y="32"
     inkscape:window-maximized="0"
     inkscape:current-layer="svg26"
     inkscape:document-rotation="0" />
  <g
     fill="#2e3436"
     fill-rule="evenodd"
     id="g24"
     style="fill:#c9827f;fill-opacity:1">
    <path
       d="M2 1v14h2V1z"
       style="line-height:normal;font-variant-ligatures:normal;font-variant-position:normal;font-variant-caps:normal;font-variant-numeric:normal;font-variant-alternates:normal;font-feature-settings:normal;text-indent:0;text-align:start;text-decoration-line:none;text-decoration-style:solid;text-decoration-color:#000;text-transform:none;text-orientation:mixed;white-space:normal;shape-padding:0;isolation:auto;mix-blend-mode:normal;solid-color:#000;solid-opacity:1;fill:#c9827f;fill-opacity:1"
       color="#000"
       font-weight="400"
       font-family="sans-serif"
       overflow="visible"
       id="path18" />
    <path
       d="M3 1a1 1 0 00-1 1v6a1 1 0 001 1h3.383l.722 1.447A1 1 0 008 11h5a1 1 0 001-1V4a1 1 0 00-1-1H9.617l-.722-1.447A1 1 0 008 1zm1 2h3.383l.722 1.447A1 1 0 009 5h3v4H8.617l-.722-1.447A1 1 0 007 7H4z"
       style="line-height:normal;font-variant-ligatures:normal;font-variant-position:normal;font-variant-caps:normal;font-variant-numeric:normal;font-variant-alternates:normal;font-feature-settings:normal;text-indent:0;text-align:start;text-decoration-line:none;text-decoration-style:solid;text-decoration-color:#000;text-transform:none;text-orientation:mixed;white-space:normal;shape-padding:0;isolation:auto;mix-blend-mode:normal;solid-color:#000;solid-opacity:1;fill:#c9827f;fill-opacity:1"
       color="#000"
       font-weight="400"
       font-family="sans-serif"
       overflow="visible"
       id="path20" />
    <path
       d="M3 8h4l1 2h5V4H9L8 2H3z"
       id="path22"
       style="fill:#c9827f;fill-opacity:1" />
  </g>
</svg>
