<?xml version="1.0" encoding="UTF-8" standalone="no"?>
<svg
   xmlns:dc="http://purl.org/dc/elements/1.1/"
   xmlns:cc="http://creativecommons.org/ns#"
   xmlns:rdf="http://www.w3.org/1999/02/22-rdf-syntax-ns#"
   xmlns:svg="http://www.w3.org/2000/svg"
   xmlns="http://www.w3.org/2000/svg"
   xmlns:sodipodi="http://sodipodi.sourceforge.net/DTD/sodipodi-0.dtd"
   xmlns:inkscape="http://www.inkscape.org/namespaces/inkscape"
   width="64px"
   height="64px"
   id="svg3393"
   version="1.1"
   inkscape:version="1.0.2 (e86c870879, 2021-01-15)"
   sodipodi:docname="no-notifications.svg">
  <defs
     id="defs3395">
    <clipPath
       id="clipPath6262-0"
       clipPathUnits="userSpaceOnUse">
      <rect
         style="color:#bebebe;display:inline;overflow:visible;visibility:visible;fill:#bebebe;fill-opacity:1;fill-rule:nonzero;stroke:none;stroke-width:2;marker:none"
         id="rect6264-6"
         width="3.8250003"
         height="6.3750005"
         x="26.849981"
         y="220.75" />
    </clipPath>
    <clipPath
       id="clipPath6258-0"
       clipPathUnits="userSpaceOnUse">
      <rect
         style="color:#bebebe;display:inline;overflow:visible;visibility:visible;fill:#bebebe;fill-opacity:1;fill-rule:nonzero;stroke:none;stroke-width:2;marker:none"
         id="rect6260-6"
         width="2.8977275"
         height="5.3129687"
         x="26.965673"
         y="221.28162" />
    </clipPath>
    <clipPath
       id="clipPath6254-6"
       clipPathUnits="userSpaceOnUse">
      <rect
         style="color:#bebebe;display:inline;overflow:visible;visibility:visible;fill:#bebebe;fill-opacity:1;stroke:none;stroke-width:2;marker:none"
         id="rect6256-6"
         width="1.876245"
         height="4.8783236"
         x="26.998718"
         y="221.50153" />
    </clipPath>
    <clipPath
       id="clipPath8028-3"
       clipPathUnits="userSpaceOnUse">
      <path
         style="fill:none;stroke:#000000;stroke-width:1px;stroke-linecap:butt;stroke-linejoin:miter;stroke-opacity:1"
         d="m -73,-30 -7,-7 v -4.5 h 16.5 v 4.5 l -7.5,7 z"
         id="path8030-6"
         inkscape:connector-curvature="0"
         sodipodi:nodetypes="ccccccc" />
    </clipPath>
    <clipPath
       clipPathUnits="userSpaceOnUse"
       id="clipPath6810-7-87-7">
      <rect
         style="color:#bebebe;display:inline;overflow:visible;visibility:visible;fill:none;stroke:#ffffff;stroke-width:2;stroke-linecap:round;stroke-linejoin:round;stroke-miterlimit:4;stroke-dasharray:none;stroke-dashoffset:0;stroke-opacity:1;marker:none"
         id="rect6812-2-4-5"
         width="14"
         height="11"
         x="21"
         y="281" />
    </clipPath>
    <clipPath
       id="clipPath6262"
       clipPathUnits="userSpaceOnUse">
      <rect
         style="color:#bebebe;display:inline;overflow:visible;visibility:visible;fill:#bebebe;fill-opacity:1;fill-rule:nonzero;stroke:none;stroke-width:2;marker:none"
         id="rect6264"
         width="3.8250003"
         height="6.3750005"
         x="26.849981"
         y="220.75" />
    </clipPath>
    <clipPath
       id="clipPath6258"
       clipPathUnits="userSpaceOnUse">
      <rect
         style="color:#bebebe;display:inline;overflow:visible;visibility:visible;fill:#bebebe;fill-opacity:1;fill-rule:nonzero;stroke:none;stroke-width:2;marker:none"
         id="rect6260"
         width="2.8977275"
         height="5.3129687"
         x="26.965673"
         y="221.28162" />
    </clipPath>
    <clipPath
       id="clipPath6254"
       clipPathUnits="userSpaceOnUse">
      <rect
         style="color:#bebebe;display:inline;overflow:visible;visibility:visible;fill:#bebebe;fill-opacity:1;stroke:none;stroke-width:2;marker:none"
         id="rect6256"
         width="1.876245"
         height="4.8783236"
         x="26.998718"
         y="221.50153" />
    </clipPath>
    <inkscape:path-effect
       effect="spiro"
       id="path-effect3951"
       is_visible="true" />
    <filter
       height="1"
       width="1"
       y="0"
       x="0"
       style="color-interpolation-filters:sRGB;"
       inkscape:label="Blur"
       id="filter877">
      <feGaussianBlur
         stdDeviation="100 47.6264"
         result="blur"
         id="feGaussianBlur871" />
      <feColorMatrix
         values="1 0 0 0 0 0 1 0 0 0 0 0 1 0 0 0 0 0 50 0 "
         result="colormatrix"
         id="feColorMatrix873" />
      <feComposite
         in="colormatrix"
         in2="SourceGraphic"
         operator="in"
         id="feComposite875" />
    </filter>
  </defs>
  <sodipodi:namedview
     id="base"
     pagecolor="#383838"
     bordercolor="#666666"
     borderopacity="1.0"
     inkscape:pageopacity="0"
     inkscape:pageshadow="2"
     inkscape:zoom="8"
     inkscape:cx="21.347497"
     inkscape:cy="35.326574"
     inkscape:current-layer="layer1"
     showgrid="true"
     inkscape:document-units="px"
     inkscape:grid-bbox="true"
     inkscape:window-width="1920"
     inkscape:window-height="1011"
     inkscape:window-x="0"
     inkscape:window-y="32"
     inkscape:window-maximized="1"
     inkscape:document-rotation="0"
     showguides="true"
     inkscape:guide-bbox="true" />
  <metadata
     id="metadata3398">
    <rdf:RDF>
      <cc:Work
         rdf:about="">
        <dc:format>image/svg+xml</dc:format>
        <dc:type
           rdf:resource="http://purl.org/dc/dcmitype/StillImage" />
        <dc:title />
      </cc:Work>
    </rdf:RDF>
  </metadata>
  <g
     id="layer1"
     inkscape:label="Layer 1"
     inkscape:groupmode="layer">
    <path
       inkscape:connector-curvature="0"
       d="m 39.25618,18.216225 c 0.0748,0.66708 0.25,1.31288 0.25,2 0,9.94112 -8.05888,18 -18,18 -0.47076,0 -0.91336,-0.0896 -1.375,-0.1248 v 8.875 c 0,4.01648 3.23352,7.25 7.25,7.25 l 6.18044,-2e-4 8,8.18752 8.25,-8.18752 h 6.44456 c 4.01652,0 7.25,-3.23352 7.25,-7.25 v -21.5 c 0,-4.01648 -3.23348,-7.25 -7.25,-7.25 z"
       id="path19253"
       sodipodi:nodetypes="csscsscccssssc"
       style="color:#000000;display:inline;overflow:visible;visibility:visible;opacity:1;fill:#a0a0a0;fill-opacity:1;fill-rule:nonzero;stroke:none;stroke-width:8;marker:none;enable-background:accumulate" />
    <path
       inkscape:connector-curvature="0"
       d="m 27.64396,7.79352 c -8.83656,0 -13.32052,6 -16,16 l -4,20 c -0.43324,2.16624 -1.79088,4 -4,4 v 4 h 48 v -4 c -2.20916,0 -3.56676,-1.83376 -4,-4 l -4,-20 c -2.12132,-10 -7.16344,-16 -16,-16 z"
       id="path40220"
       sodipodi:nodetypes="ccsccccscc"
       style="vector-effect:none;fill:#ffffff;fill-opacity:1;stroke:none;stroke-width:4;stroke-linecap:butt;stroke-linejoin:miter;stroke-miterlimit:4;stroke-dasharray:none;stroke-dashoffset:0;stroke-opacity:1;marker:none;paint-order:normal" />
    <path
       inkscape:connector-curvature="0"
       d="m 25.625534,53.891571 a 6,6 0 0 0 5.64844,4 6,6 0 0 0 5.64844,-4 z"
       id="path40774"
       style="vector-effect:none;fill:#ffffff;fill-opacity:1;stroke:none;stroke-width:4;stroke-linecap:butt;stroke-linejoin:miter;stroke-miterlimit:4;stroke-dasharray:none;stroke-dashoffset:0;stroke-opacity:1;marker:none;paint-order:normal" />
    <g
       id="g19247"
       inkscape:label="status"
       style="display:inline"
       transform="matrix(4,0,0,4,-1371.819,-2596.4574)" />
    <g
       id="g19249"
       inkscape:label="devices"
       transform="matrix(4,0,0,4,-1371.819,-2596.4574)" />
    <g
       id="g19257"
       inkscape:label="places"
       transform="matrix(4,0,0,4,-1371.819,-2596.4574)" />
    <g
       id="g19259"
       inkscape:label="mimetypes"
       transform="matrix(4,0,0,4,-1371.819,-2596.4574)" />
    <g
       id="g19261"
       inkscape:label="emblems"
       style="display:inline"
       transform="matrix(4,0,0,4,-1371.819,-2596.4574)" />
    <g
       id="g19263"
       inkscape:label="emotes"
       style="display:inline"
       transform="matrix(4,0,0,4,-1371.819,-2596.4574)" />
    <g
       id="g19265"
       inkscape:label="categories"
       style="display:inline"
       transform="matrix(4,0,0,4,-1371.819,-2596.4574)" />
    <g
       id="g19267"
       inkscape:label="actions"
       style="display:inline"
       transform="matrix(4,0,0,4,-1371.819,-2596.4574)" />
    <path
       style="opacity:0.596262;fill:#ffffff;fill-opacity:1;stroke:#000000;stroke-width:0.0327037;stroke-linecap:round;stroke-opacity:0.456991;paint-order:markers fill stroke;filter:url(#filter877)"
       d="m 11.224139,26.609704 c 0.0034,-0.649983 0.892666,-4.1978 1.491613,-5.950705 2.052687,-6.007489 5.048354,-9.933799 8.902416,-11.6680682 0.483044,-0.2173622 0.8141,-0.2777794 0.923367,-0.1685129 0.09369,0.093686 0.338691,0.8360851 0.544457,1.6497761 0.527323,2.085283 0.41613,5.295646 -0.254327,7.34287 -1.401501,4.279451 -5.222758,7.822233 -9.533327,8.838583 -1.512042,0.35651 -2.07621,0.344558 -2.074199,-0.04394 z"
       id="path879"
       transform="matrix(0.9655723,0,0,0.84214649,0.8062423,1.3842512)" />
    <path
       inkscape:connector-curvature="0"
       d="m 12.604633,-0.1807875 c -7.1175939,0 -12.887521,5.8909446 -12.887521,13.1578195 0,7.266878 5.7699271,13.157822 12.887521,13.157822 7.117594,0 12.88752,-5.890944 12.88752,-13.157822 0,-7.2668749 -5.769926,-13.1578195 -12.88752,-13.1578195 z m -1.956142,3.7593776 h 3.797216 l -0.230134,5.1691436 a 0.73465194,0.7500604 0 0 0 0,0.2349611 0.73465194,0.7500604 0 0 0 0,0.1172926 0.73465194,0.7500604 0 0 0 0.460268,0.4699218 0.73465194,0.7500604 0 0 0 0.114884,0 0.73465194,0.7500604 0 0 0 0.230134,0 0.73465194,0.7500604 0 0 0 0.230134,0 0.73465194,0.7500604 0 0 0 0.114883,-0.1172925 l 4.257485,-2.8195324 1.841075,3.4069347 -4.48762,2.349612 a 0.73465194,0.7500604 0 0 0 -0.114883,0 0.73465194,0.7500604 0 0 0 -0.114883,0.117292 0.73465194,0.7500604 0 0 0 -0.114883,0.352254 0.73465194,0.7500604 0 0 0 0,0.234961 0.73465194,0.7500604 0 0 0 0,0.117293 0.73465194,0.7500604 0 0 0 0.114883,0.234961 0.73465194,0.7500604 0 0 0 0.114883,0.117292 0.73465194,0.7500604 0 0 0 0.114883,0.117293 l 4.602687,2.34961 -1.956142,3.406937 -4.257485,-2.936074 a 0.73465194,0.7500604 0 0 0 -0.114883,0 0.73465194,0.7500604 0 0 0 -0.230134,-0.117293 0.73465194,0.7500604 0 0 0 -0.230134,0 0.73465194,0.7500604 0 0 0 -0.460269,0.352253 0.73465194,0.7500604 0 0 0 -0.114883,0.117293 0.73465194,0.7500604 0 0 0 0,0.117292 0.73465194,0.7500604 0 0 0 0,0.234961 l 0.230134,5.169521 h -3.797216 l 0.345017,-5.169145 a 0.73465194,0.7500604 0 0 0 -0.114883,-0.352253 0.73465194,0.7500604 0 0 0 -0.114883,-0.234962 0.73465194,0.7500604 0 0 0 -0.230134,-0.117292 0.73465194,0.7500604 0 0 0 -0.230134,-0.117293 0.73465194,0.7500604 0 0 0 -0.114883,0 0.73465194,0.7500604 0 0 0 -0.345018,0.117293 l -4.3725512,2.937014 -1.8410744,-3.406935 4.602686,-2.349612 a 0.73465194,0.7500604 0 0 0 0.114883,-0.117293 0.73465194,0.7500604 0 0 0 0.1148831,-0.117293 0.73465194,0.7500604 0 0 0 0.114883,-0.23496 0.73465194,0.7500604 0 0 0 0,-0.117293 0.73465194,0.7500604 0 0 0 0,-0.234962 0.73465194,0.7500604 0 0 0 0,-0.117292 0.73465194,0.7500604 0 0 0 -0.114883,-0.234961 0.73465194,0.7500604 0 0 0 -0.1148831,-0.117293 0.73465194,0.7500604 0 0 0 -0.114883,0 L 3.6299474,10.041335 5.4710218,6.6344 9.843573,9.4539321 a 0.73465194,0.7500604 0 0 0 0.114883,0.1172926 0.73465194,0.7500604 0 0 0 0.230135,0 0.73465194,0.7500604 0 0 0 0.230134,0 0.73465194,0.7500604 0 0 0 0.114883,0 0.73465194,0.7500604 0 0 0 0.114883,-0.1172926 0.73465194,0.7500604 0 0 0 0.114883,-0.1172918 0.73465194,0.7500604 0 0 0 0.114883,-0.1172927 0.73465194,0.7500604 0 0 0 0,-0.1172926 0.73465194,0.7500604 0 0 0 0.114883,-0.2349611 0.73465194,0.7500604 0 0 0 0,-0.1172925 z"
       id="path19255"
       style="color:#000000;display:inline;overflow:visible;visibility:visible;fill:#aeaeae;fill-opacity:1;fill-rule:nonzero;stroke:none;stroke-width:3.72056;marker:none;enable-background:accumulate" />
    <path
       style="fill:#ffffff;fill-opacity:0;stroke-width:0.0115625;stroke-linecap:round;stroke-opacity:0.456991;paint-order:markers fill stroke"
       d="m 19.623361,19.437524 c -0.9625,-0.650902 -1.757495,-1.218028 -1.766654,-1.260281 -0.0198,-0.09133 0.721495,-1.626852 1.218718,-2.524472 l 0.351832,-0.635151 2.004302,1.001455 c 1.102366,0.5508 2.013538,1.009916 2.024826,1.020258 0.01875,0.01718 -1.962527,3.444349 -2.046576,3.540119 -0.02005,0.02284 -0.823948,-0.491025 -1.786448,-1.141928 z"
       id="path880" />
    <path
       style="fill:#ffffff;fill-opacity:0;stroke-width:0.0115625;stroke-linecap:round;stroke-opacity:0.456991;paint-order:markers fill stroke"
       d="m 19.623361,19.437524 c -0.9625,-0.650902 -1.757495,-1.218028 -1.766654,-1.260281 -0.0198,-0.09133 0.721495,-1.626852 1.218718,-2.524472 l 0.351832,-0.635151 2.004302,1.001455 c 1.102366,0.5508 2.013538,1.009916 2.024826,1.020258 0.01875,0.01718 -1.962527,3.444349 -2.046576,3.540119 -0.02005,0.02284 -0.823948,-0.491025 -1.786448,-1.141928 z"
       id="path882" />
    <path
       style="fill:#ffffff;fill-opacity:0;stroke-width:0.0115625;stroke-linecap:round;stroke-opacity:0.456991;paint-order:markers fill stroke"
       d="m 19.623361,19.437524 c -0.9625,-0.650902 -1.757495,-1.218028 -1.766654,-1.260281 -0.0198,-0.09133 0.721495,-1.626852 1.218718,-2.524472 l 0.351832,-0.635151 2.004302,1.001455 c 1.102366,0.5508 2.013538,1.009916 2.024826,1.020258 0.01875,0.01718 -1.962527,3.444349 -2.046576,3.540119 -0.02005,0.02284 -0.823948,-0.491025 -1.786448,-1.141928 z"
       id="path884" />
    <path
       style="fill:#ffffff;fill-opacity:0;stroke-width:0.0115625;stroke-linecap:round;stroke-opacity:0.456991;paint-order:markers fill stroke"
       d="m 19.623361,19.437524 c -0.9625,-0.650902 -1.757495,-1.218028 -1.766654,-1.260281 -0.0198,-0.09133 0.721495,-1.626852 1.218718,-2.524472 l 0.351832,-0.635151 2.004302,1.001455 c 1.102366,0.5508 2.013538,1.009916 2.024826,1.020258 0.01875,0.01718 -1.962527,3.444349 -2.046576,3.540119 -0.02005,0.02284 -0.823948,-0.491025 -1.786448,-1.141928 z"
       id="path886" />
    <path
       style="fill:#ffffff;fill-opacity:0;stroke-width:0.0115625;stroke-linecap:round;stroke-opacity:0.456991;paint-order:markers fill stroke"
       d="m 19.623361,19.437524 c -0.9625,-0.650902 -1.757495,-1.218028 -1.766654,-1.260281 -0.0198,-0.09133 0.721495,-1.626852 1.218718,-2.524472 l 0.351832,-0.635151 2.004302,1.001455 c 1.102366,0.5508 2.013538,1.009916 2.024826,1.020258 0.01875,0.01718 -1.962527,3.444349 -2.046576,3.540119 -0.02005,0.02284 -0.823948,-0.491025 -1.786448,-1.141928 z"
       id="path888" />
    <path
       style="fill:#ffffff;fill-opacity:0;stroke-width:0.0115625;stroke-linecap:round;stroke-opacity:0.456991;paint-order:markers fill stroke"
       d="m 19.623361,19.437524 c -0.9625,-0.650902 -1.757495,-1.218028 -1.766654,-1.260281 -0.0198,-0.09133 0.721495,-1.626852 1.218718,-2.524472 l 0.351832,-0.635151 2.004302,1.001455 c 1.102366,0.5508 2.013538,1.009916 2.024826,1.020258 0.01875,0.01718 -1.962527,3.444349 -2.046576,3.540119 -0.02005,0.02284 -0.823948,-0.491025 -1.786448,-1.141928 z"
       id="path890" />
    <path
       style="fill:#ffffff;fill-opacity:0;stroke-width:0.0115625;stroke-linecap:round;stroke-opacity:0.456991;paint-order:markers fill stroke"
       d="m 19.623361,19.437524 c -0.9625,-0.650902 -1.757495,-1.218028 -1.766654,-1.260281 -0.0198,-0.09133 0.721495,-1.626852 1.218718,-2.524472 l 0.351832,-0.635151 2.004302,1.001455 c 1.102366,0.5508 2.013538,1.009916 2.024826,1.020258 0.01875,0.01718 -1.962527,3.444349 -2.046576,3.540119 -0.02005,0.02284 -0.823948,-0.491025 -1.786448,-1.141928 z"
       id="path892" />
    <path
       style="fill:#ffffff;fill-opacity:0;stroke-width:0.0115625;stroke-linecap:round;stroke-opacity:0.456991;paint-order:markers fill stroke"
       d="m 19.623361,19.437524 c -0.9625,-0.650902 -1.757495,-1.218028 -1.766654,-1.260281 -0.0198,-0.09133 0.721495,-1.626852 1.218718,-2.524472 l 0.351832,-0.635151 2.004302,1.001455 c 1.102366,0.5508 2.013538,1.009916 2.024826,1.020258 0.01875,0.01718 -1.962527,3.444349 -2.046576,3.540119 -0.02005,0.02284 -0.823948,-0.491025 -1.786448,-1.141928 z"
       id="path894" />
    <path
       style="fill:#ffffff;fill-opacity:0;stroke-width:0.0115625;stroke-linecap:round;stroke-opacity:0.456991;paint-order:markers fill stroke"
       d="m 19.623361,19.437524 c -0.9625,-0.650902 -1.757495,-1.218028 -1.766654,-1.260281 -0.0198,-0.09133 0.721495,-1.626852 1.218718,-2.524472 l 0.351832,-0.635151 2.004302,1.001455 c 1.102366,0.5508 2.013538,1.009916 2.024826,1.020258 0.01875,0.01718 -1.962527,3.444349 -2.046576,3.540119 -0.02005,0.02284 -0.823948,-0.491025 -1.786448,-1.141928 z"
       id="path896" />
    <path
       style="fill:#ffffff;fill-opacity:0;stroke-width:0.0115625;stroke-linecap:round;stroke-opacity:0.456991;paint-order:markers fill stroke"
       d="m 19.623361,19.437524 c -0.9625,-0.650902 -1.757495,-1.218028 -1.766654,-1.260281 -0.0198,-0.09133 0.721495,-1.626852 1.218718,-2.524472 l 0.351832,-0.635151 2.004302,1.001455 c 1.102366,0.5508 2.013538,1.009916 2.024826,1.020258 0.01875,0.01718 -1.962527,3.444349 -2.046576,3.540119 -0.02005,0.02284 -0.823948,-0.491025 -1.786448,-1.141928 z"
       id="path898" />
    <path
       style="fill:#ffffff;fill-opacity:0;stroke-width:0.0115625;stroke-linecap:round;stroke-opacity:0.456991;paint-order:markers fill stroke"
       d=""
       id="path900" />
    <path
       style="fill:#ffffff;fill-opacity:0;stroke-width:0.0115625;stroke-linecap:round;stroke-opacity:0.456991;paint-order:markers fill stroke"
       d=""
       id="path902" />
    <path
       style="fill:#ffffff;fill-opacity:0;stroke-width:0.0115625;stroke-linecap:round;stroke-opacity:0.456991;paint-order:markers fill stroke"
       d="m 19.623361,19.437524 c -0.9625,-0.650902 -1.757495,-1.218028 -1.766654,-1.260281 -0.0198,-0.09133 0.721495,-1.626852 1.218718,-2.524472 l 0.351832,-0.635151 2.004302,1.001455 c 1.102366,0.5508 2.013538,1.009916 2.024826,1.020258 0.01875,0.01718 -1.962527,3.444349 -2.046576,3.540119 -0.02005,0.02284 -0.823948,-0.491025 -1.786448,-1.141928 z"
       id="path904" />
    <path
       style="fill:#ffffff;fill-opacity:0;stroke-width:0.0115625;stroke-linecap:round;stroke-opacity:0.456991;paint-order:markers fill stroke"
       d="m 11.685594,23.584796 c 0.01532,-0.09453 0.104025,-1.334176 0.197116,-2.754766 0.154306,-2.35475 0.160904,-2.605932 0.0747,-2.84375 -0.139954,-0.386091 -0.60261,-0.668403 -0.95177,-0.580769 -0.08194,0.02056 -1.2177011,0.7408 -2.5239228,1.600525 -1.3062217,0.859724 -2.3993397,1.562487 -2.4291511,1.561693 -0.059031,-0.0016 -1.9911137,-3.489808 -1.9526944,-3.525451 0.01292,-0.01199 1.1522469,-0.585833 2.5318364,-1.275212 1.686148,-0.842567 2.5517041,-1.30854 2.640625,-1.421585 0.2491353,-0.316724 0.1334935,-1.21381 -0.1564702,-1.21381 -0.06931,0 -4.9344864,-2.397854 -5.0141699,-2.471287 -0.03286,-0.03028 1.890048,-3.5235918 1.9410848,-3.52633 0.039829,-0.00214 3.937446,2.4391233 4.5993442,2.880784 0.378618,0.252639 0.855042,0.255907 1.087233,0.0075 C 12.068449,9.6595038 12.069976,9.6266989 11.882098,6.741913 11.787478,5.2891156 11.697055,4.0371819 11.68115,3.9598381 l -0.02892,-0.140625 h 2.032441 2.032441 l -1.25e-4,0.265625 c -6.3e-5,0.1460938 -0.05598,1.4559591 -0.124247,2.9108119 -0.110243,2.3493036 -0.113765,2.6652254 -0.03149,2.824331 0.144833,0.280075 0.329034,0.374232 0.732115,0.374232 0.309186,0 0.403544,-0.03015 0.657969,-0.2102196 0.946662,-0.6700132 4.410113,-2.8574654 4.452802,-2.8123084 0.05883,0.062226 1.733142,3.092369 1.762282,3.189344 0.01069,0.03557 -0.205565,0.24863 -0.480565,0.473463 -0.39094,0.319624 -0.899037,0.613795 -2.329455,1.348678 -1.006201,0.516939 -1.878076,0.948951 -1.9375,0.960025 -0.180695,0.03367 -0.337082,0.418199 -0.3079,0.757065 0.03183,0.369582 0.23336,0.602564 0.74673,0.863259 0.197656,0.100371 0.359375,0.198275 0.359375,0.217564 0,0.01929 -0.109181,0.222791 -0.242625,0.452226 -0.29187,0.501824 -0.935785,1.783991 -1.135446,2.260904 -0.07915,0.189063 -0.15219,0.354631 -0.162308,0.36793 -0.01012,0.0133 -0.207664,-0.09913 -0.438991,-0.249849 -0.836865,-0.545239 -1.224522,-0.558358 -1.629344,-0.05514 l -0.139963,0.173983 0.124221,2.647164 c 0.06832,1.45594 0.124274,2.766695 0.124339,2.912788 l 1.25e-4,0.265625 h -2.029688 -2.029687 z"
       id="path906" />
    <path
       style="fill:#ffffff;fill-opacity:0;stroke-width:0.0115625;stroke-linecap:round;stroke-opacity:0.456991;paint-order:markers fill stroke"
       d="m 19.623361,19.437524 c -0.9625,-0.650902 -1.757495,-1.218028 -1.766654,-1.260281 -0.0198,-0.09133 0.721495,-1.626852 1.218718,-2.524472 l 0.351832,-0.635151 2.004302,1.001455 c 1.102366,0.5508 2.013538,1.009916 2.024826,1.020258 0.01875,0.01718 -1.962527,3.444349 -2.046576,3.540119 -0.02005,0.02284 -0.823948,-0.491025 -1.786448,-1.141928 z"
       id="path908" />
    <path
       style="fill:#ffffff;fill-opacity:0;stroke-width:0.0115625;stroke-linecap:round;stroke-opacity:0.456991;paint-order:markers fill stroke"
       d="m 19.623361,19.437524 c -0.9625,-0.650902 -1.757495,-1.218028 -1.766654,-1.260281 -0.0198,-0.09133 0.721495,-1.626852 1.218718,-2.524472 l 0.351832,-0.635151 2.004302,1.001455 c 1.102366,0.5508 2.013538,1.009916 2.024826,1.020258 0.01875,0.01718 -1.962527,3.444349 -2.046576,3.540119 -0.02005,0.02284 -0.823948,-0.491025 -1.786448,-1.141928 z"
       id="path910" />
    <path
       style="fill:#ffffff;fill-opacity:0;stroke-width:0.0115625;stroke-linecap:round;stroke-opacity:0.456991;paint-order:markers fill stroke"
       d="m 19.623361,19.437524 c -0.9625,-0.650902 -1.757495,-1.218028 -1.766654,-1.260281 -0.0198,-0.09133 0.721495,-1.626852 1.218718,-2.524472 l 0.351832,-0.635151 2.004302,1.001455 c 1.102366,0.5508 2.013538,1.009916 2.024826,1.020258 0.01875,0.01718 -1.962527,3.444349 -2.046576,3.540119 -0.02005,0.02284 -0.823948,-0.491025 -1.786448,-1.141928 z"
       id="path912" />
  </g>
</svg>
